%TF.GenerationSoftware,KiCad,Pcbnew,8.0.4*%
%TF.CreationDate,2025-01-29T23:36:48-05:00*%
%TF.ProjectId,Raidillon,52616964-696c-46c6-9f6e-2e6b69636164,rev?*%
%TF.SameCoordinates,Original*%
%TF.FileFunction,Legend,Top*%
%TF.FilePolarity,Positive*%
%FSLAX46Y46*%
G04 Gerber Fmt 4.6, Leading zero omitted, Abs format (unit mm)*
G04 Created by KiCad (PCBNEW 8.0.4) date 2025-01-29 23:36:48*
%MOMM*%
%LPD*%
G01*
G04 APERTURE LIST*
G04 Aperture macros list*
%AMRoundRect*
0 Rectangle with rounded corners*
0 $1 Rounding radius*
0 $2 $3 $4 $5 $6 $7 $8 $9 X,Y pos of 4 corners*
0 Add a 4 corners polygon primitive as box body*
4,1,4,$2,$3,$4,$5,$6,$7,$8,$9,$2,$3,0*
0 Add four circle primitives for the rounded corners*
1,1,$1+$1,$2,$3*
1,1,$1+$1,$4,$5*
1,1,$1+$1,$6,$7*
1,1,$1+$1,$8,$9*
0 Add four rect primitives between the rounded corners*
20,1,$1+$1,$2,$3,$4,$5,0*
20,1,$1+$1,$4,$5,$6,$7,0*
20,1,$1+$1,$6,$7,$8,$9,0*
20,1,$1+$1,$8,$9,$2,$3,0*%
G04 Aperture macros list end*
%ADD10C,0.200000*%
%ADD11C,0.250000*%
%ADD12C,0.000000*%
%ADD13C,0.100000*%
%ADD14C,0.127000*%
%ADD15RoundRect,0.550000X-1.050000X-0.550000X1.050000X-0.550000X1.050000X0.550000X-1.050000X0.550000X0*%
%ADD16RoundRect,0.325000X1.025000X0.325000X-1.025000X0.325000X-1.025000X-0.325000X1.025000X-0.325000X0*%
%ADD17C,1.900000*%
%ADD18R,1.700000X1.700000*%
%ADD19O,1.700000X1.700000*%
G04 APERTURE END LIST*
D10*
X107523810Y-125091683D02*
X108476191Y-125091683D01*
D11*
X112692857Y-125705750D02*
X112871428Y-125765273D01*
X112871428Y-125765273D02*
X113169047Y-125765273D01*
X113169047Y-125765273D02*
X113288095Y-125705750D01*
X113288095Y-125705750D02*
X113347619Y-125646226D01*
X113347619Y-125646226D02*
X113407142Y-125527178D01*
X113407142Y-125527178D02*
X113407142Y-125408130D01*
X113407142Y-125408130D02*
X113347619Y-125289083D01*
X113347619Y-125289083D02*
X113288095Y-125229559D01*
X113288095Y-125229559D02*
X113169047Y-125170035D01*
X113169047Y-125170035D02*
X112930952Y-125110511D01*
X112930952Y-125110511D02*
X112811904Y-125050988D01*
X112811904Y-125050988D02*
X112752381Y-124991464D01*
X112752381Y-124991464D02*
X112692857Y-124872416D01*
X112692857Y-124872416D02*
X112692857Y-124753369D01*
X112692857Y-124753369D02*
X112752381Y-124634321D01*
X112752381Y-124634321D02*
X112811904Y-124574797D01*
X112811904Y-124574797D02*
X112930952Y-124515273D01*
X112930952Y-124515273D02*
X113228571Y-124515273D01*
X113228571Y-124515273D02*
X113407142Y-124574797D01*
D10*
X110073810Y-125091683D02*
X111026191Y-125091683D01*
X110550000Y-125567873D02*
X110550000Y-124615492D01*
D12*
%TO.C,G\u002A\u002A\u002A*%
G36*
X116100373Y-123834782D02*
G01*
X116270833Y-123837500D01*
X116323069Y-123865825D01*
X116382852Y-123906449D01*
X116428404Y-123955627D01*
X116459532Y-124013041D01*
X116476041Y-124078371D01*
X116478847Y-124120833D01*
X116477914Y-124159461D01*
X116473741Y-124189049D01*
X116464816Y-124217131D01*
X116454929Y-124239929D01*
X116420170Y-124296675D01*
X116374420Y-124342921D01*
X116320192Y-124377578D01*
X116259995Y-124399557D01*
X116196341Y-124407768D01*
X116131738Y-124401124D01*
X116102498Y-124392815D01*
X116041710Y-124365008D01*
X115992639Y-124326858D01*
X115953286Y-124276494D01*
X115929633Y-124231142D01*
X115924469Y-124221661D01*
X115949741Y-124221661D01*
X115951569Y-124225325D01*
X115956462Y-124227384D01*
X115949936Y-124220861D01*
X115949741Y-124221661D01*
X115924469Y-124221661D01*
X115909146Y-124193527D01*
X115893028Y-124175802D01*
X116452861Y-124175802D01*
X116453958Y-124153933D01*
X116454166Y-124125000D01*
X116452861Y-124175802D01*
X115893028Y-124175802D01*
X115883968Y-124165839D01*
X115860959Y-124152071D01*
X115820039Y-124136425D01*
X115807174Y-124132400D01*
X115761224Y-124124295D01*
X115708891Y-124120517D01*
X115645611Y-124121505D01*
X115576285Y-124126865D01*
X115505817Y-124136206D01*
X115439108Y-124149135D01*
X115433181Y-124150527D01*
X115396178Y-124158566D01*
X115371994Y-124161639D01*
X115357619Y-124160006D01*
X115353093Y-124157443D01*
X115343729Y-124145447D01*
X115344080Y-124136536D01*
X115344299Y-124130965D01*
X115355778Y-124111380D01*
X115379140Y-124084073D01*
X115381250Y-124081801D01*
X115429889Y-124036472D01*
X115614604Y-124036472D01*
X115614767Y-124037191D01*
X115615077Y-124036814D01*
X115614604Y-124036472D01*
X115429889Y-124036472D01*
X115446033Y-124021427D01*
X115520880Y-123967067D01*
X115588121Y-123929435D01*
X115677883Y-123929435D01*
X115680508Y-123957180D01*
X115681140Y-123956411D01*
X115677883Y-123929435D01*
X115588121Y-123929435D01*
X115595833Y-123925119D01*
X115661237Y-123896097D01*
X115723837Y-123873422D01*
X115786876Y-123856513D01*
X115853598Y-123844788D01*
X115927246Y-123837668D01*
X116011065Y-123834571D01*
X116100373Y-123834782D01*
G37*
G36*
X118376407Y-123050905D02*
G01*
X118476003Y-123073454D01*
X118572487Y-123109838D01*
X118589342Y-123117852D01*
X118684098Y-123173607D01*
X118770736Y-123243389D01*
X118848495Y-123326269D01*
X118916615Y-123421318D01*
X118974337Y-123527609D01*
X119020901Y-123644213D01*
X119021270Y-123645317D01*
X119040254Y-123707665D01*
X119050812Y-123755873D01*
X119052938Y-123789880D01*
X119046626Y-123809625D01*
X119036973Y-123814958D01*
X119028052Y-123812906D01*
X119015340Y-123803645D01*
X118997441Y-123785735D01*
X118972956Y-123757734D01*
X118968985Y-123752899D01*
X119002952Y-123752899D01*
X119002969Y-123752963D01*
X119003162Y-123752918D01*
X119002952Y-123752899D01*
X118968985Y-123752899D01*
X118940489Y-123718201D01*
X118927747Y-123702332D01*
X118860789Y-123620443D01*
X118800766Y-123551270D01*
X118746002Y-123493262D01*
X118694820Y-123444864D01*
X118645542Y-123404526D01*
X118596491Y-123370694D01*
X118545992Y-123341815D01*
X118529166Y-123333325D01*
X118466445Y-123305908D01*
X118407422Y-123288039D01*
X118346318Y-123278550D01*
X118277351Y-123276274D01*
X118250000Y-123276976D01*
X118207961Y-123279201D01*
X118171926Y-123283064D01*
X118138035Y-123289573D01*
X118102426Y-123299734D01*
X118061238Y-123314556D01*
X118010610Y-123335046D01*
X117983333Y-123346548D01*
X117934432Y-123363346D01*
X117890786Y-123370623D01*
X117854908Y-123368307D01*
X117829312Y-123356323D01*
X117824277Y-123351160D01*
X117822019Y-123346316D01*
X117893230Y-123346316D01*
X117893236Y-123348612D01*
X117896346Y-123347962D01*
X117893230Y-123346316D01*
X117822019Y-123346316D01*
X117816450Y-123334367D01*
X117951146Y-123334367D01*
X117969890Y-123327654D01*
X117957946Y-123330000D01*
X117951146Y-123334367D01*
X117816450Y-123334367D01*
X117810848Y-123322348D01*
X117810960Y-123315032D01*
X117811366Y-123288503D01*
X117824592Y-123251454D01*
X117849285Y-123213028D01*
X117884204Y-123175056D01*
X117928109Y-123139364D01*
X117979759Y-123107783D01*
X117994368Y-123100440D01*
X118082678Y-123066958D01*
X118177371Y-123047588D01*
X118276072Y-123042260D01*
X118376407Y-123050905D01*
G37*
G36*
X115805087Y-123045594D02*
G01*
X115900676Y-123062431D01*
X115990311Y-123093368D01*
X116005631Y-123100440D01*
X116059096Y-123130645D01*
X116105141Y-123165437D01*
X116142525Y-123202987D01*
X116170009Y-123241467D01*
X116186351Y-123279048D01*
X116190311Y-123313903D01*
X116180649Y-123344201D01*
X116175710Y-123351160D01*
X116153729Y-123365596D01*
X116120658Y-123370512D01*
X116079032Y-123365987D01*
X116031384Y-123352101D01*
X116016389Y-123346162D01*
X115960378Y-123323068D01*
X115915708Y-123305985D01*
X115878588Y-123293928D01*
X115845231Y-123285914D01*
X115811848Y-123280958D01*
X115774650Y-123278078D01*
X115750000Y-123276976D01*
X115676870Y-123276981D01*
X115613646Y-123283786D01*
X115554548Y-123298559D01*
X115493795Y-123322467D01*
X115470833Y-123333325D01*
X115419431Y-123360989D01*
X115370014Y-123393130D01*
X115320903Y-123431302D01*
X115270421Y-123477058D01*
X115216887Y-123531951D01*
X115158624Y-123597535D01*
X115093953Y-123675364D01*
X115072552Y-123701956D01*
X115034617Y-123748425D01*
X115005033Y-123782153D01*
X114982621Y-123804076D01*
X114966201Y-123815127D01*
X114954595Y-123816240D01*
X114946624Y-123808348D01*
X114944405Y-123803451D01*
X114943690Y-123793378D01*
X114943026Y-123784031D01*
X114947745Y-123752546D01*
X114957598Y-123712029D01*
X114971619Y-123665510D01*
X114988844Y-123616021D01*
X115008310Y-123566594D01*
X115029050Y-123520260D01*
X115043607Y-123491666D01*
X115105459Y-123389215D01*
X115172267Y-123301699D01*
X115245332Y-123227795D01*
X115296623Y-123188595D01*
X115845584Y-123188595D01*
X115854361Y-123190000D01*
X115860063Y-123186423D01*
X115845584Y-123188595D01*
X115296623Y-123188595D01*
X115325955Y-123166178D01*
X115410657Y-123117852D01*
X115506327Y-123078985D01*
X115605539Y-123053941D01*
X115705916Y-123042787D01*
X115805087Y-123045594D01*
G37*
G36*
X118261701Y-123836400D02*
G01*
X118264476Y-123836472D01*
X118317849Y-123838059D01*
X118357725Y-123839868D01*
X118387274Y-123842313D01*
X118409665Y-123845810D01*
X118428067Y-123850771D01*
X118445649Y-123857613D01*
X118453694Y-123861212D01*
X118513074Y-123896550D01*
X118560707Y-123941498D01*
X118596149Y-123993875D01*
X118618960Y-124051501D01*
X118628697Y-124112197D01*
X118624917Y-124173780D01*
X118607179Y-124234071D01*
X118575039Y-124290890D01*
X118547493Y-124323618D01*
X118505388Y-124360947D01*
X118461660Y-124385821D01*
X118411675Y-124400215D01*
X118354166Y-124405980D01*
X118314863Y-124406816D01*
X118285999Y-124405103D01*
X118261432Y-124399963D01*
X118235020Y-124390519D01*
X118229166Y-124388115D01*
X118183809Y-124362554D01*
X118140903Y-124326386D01*
X118104920Y-124284132D01*
X118080333Y-124240312D01*
X118078671Y-124236013D01*
X118064678Y-124202793D01*
X118049245Y-124180492D01*
X118027388Y-124163760D01*
X117997322Y-124148687D01*
X117979272Y-124141139D01*
X117961729Y-124135821D01*
X117941304Y-124132349D01*
X117914608Y-124130338D01*
X117878252Y-124129406D01*
X117828848Y-124129167D01*
X117825000Y-124129166D01*
X117762774Y-124129895D01*
X117712824Y-124132314D01*
X117670812Y-124136772D01*
X117632400Y-124143618D01*
X117625000Y-124145252D01*
X117574115Y-124155868D01*
X117537268Y-124161157D01*
X117512704Y-124161128D01*
X117498671Y-124155788D01*
X117493501Y-124145833D01*
X117494560Y-124141431D01*
X117498234Y-124126157D01*
X117515489Y-124100392D01*
X117543129Y-124070382D01*
X117579019Y-124037969D01*
X117621022Y-124004995D01*
X117667001Y-123973303D01*
X117714819Y-123944735D01*
X117744554Y-123929350D01*
X117820541Y-123896140D01*
X117896338Y-123870780D01*
X117975149Y-123852699D01*
X118060177Y-123841323D01*
X118154626Y-123836081D01*
X118261701Y-123836400D01*
G37*
G36*
X117896707Y-124682319D02*
G01*
X117922790Y-124702695D01*
X117939748Y-124727589D01*
X117947210Y-124751385D01*
X117952309Y-124788065D01*
X117955090Y-124834020D01*
X117955596Y-124885642D01*
X117953872Y-124939323D01*
X117949960Y-124991454D01*
X117943905Y-125038427D01*
X117935751Y-125076633D01*
X117935507Y-125077493D01*
X117905829Y-125160135D01*
X117868083Y-125228447D01*
X117821950Y-125282853D01*
X117767114Y-125323778D01*
X117741062Y-125337208D01*
X117706227Y-125350241D01*
X117656829Y-125364556D01*
X117594884Y-125379751D01*
X117522412Y-125395428D01*
X117441429Y-125411188D01*
X117353955Y-125426630D01*
X117262005Y-125441357D01*
X117167600Y-125454967D01*
X117104575Y-125463189D01*
X117055824Y-125467987D01*
X116994218Y-125472053D01*
X116922802Y-125475354D01*
X116844623Y-125477854D01*
X116762726Y-125479518D01*
X116680158Y-125480313D01*
X116599965Y-125480204D01*
X116525192Y-125479157D01*
X116458887Y-125477136D01*
X116404095Y-125474108D01*
X116374943Y-125471453D01*
X116334967Y-125466594D01*
X116318072Y-125464272D01*
X116549821Y-125464272D01*
X116600806Y-125464369D01*
X116566406Y-125464228D01*
X116549821Y-125464272D01*
X116318072Y-125464272D01*
X116299729Y-125461751D01*
X116273342Y-125457524D01*
X116260726Y-125454796D01*
X116252469Y-125449767D01*
X116399557Y-125449767D01*
X116400590Y-125453051D01*
X116401176Y-125450843D01*
X116399631Y-125449764D01*
X116399557Y-125449767D01*
X116252469Y-125449767D01*
X116244682Y-125445024D01*
X116323399Y-125445024D01*
X116343794Y-125410781D01*
X116343770Y-125410764D01*
X116323399Y-125445024D01*
X116244682Y-125445024D01*
X116238814Y-125441450D01*
X116218338Y-125418931D01*
X116204112Y-125393494D01*
X116202636Y-125386645D01*
X116358112Y-125386645D01*
X116358144Y-125386688D01*
X116359057Y-125385155D01*
X116359016Y-125385124D01*
X116358112Y-125386645D01*
X116202636Y-125386645D01*
X116201443Y-125381105D01*
X116200439Y-125376443D01*
X116205791Y-125350350D01*
X116219268Y-125324449D01*
X116221643Y-125321797D01*
X117729623Y-125321797D01*
X117731034Y-125321166D01*
X117730667Y-125316766D01*
X117729623Y-125321797D01*
X116221643Y-125321797D01*
X116237108Y-125304531D01*
X116252233Y-125296748D01*
X116265544Y-125295378D01*
X116293029Y-125293464D01*
X116332213Y-125291144D01*
X116380616Y-125288560D01*
X116435763Y-125285850D01*
X116483742Y-125283657D01*
X116655644Y-125273828D01*
X116812549Y-125260074D01*
X116955711Y-125242151D01*
X117086389Y-125219817D01*
X117205838Y-125192829D01*
X117315314Y-125160944D01*
X117416075Y-125123919D01*
X117496242Y-125088015D01*
X117583183Y-125039400D01*
X117654375Y-124985984D01*
X117710123Y-124927439D01*
X117750732Y-124863437D01*
X117776507Y-124793650D01*
X117778635Y-124784797D01*
X117793958Y-124739414D01*
X117815421Y-124705766D01*
X117841029Y-124684563D01*
X117868789Y-124676511D01*
X117896707Y-124682319D01*
G37*
G36*
X105072754Y-123837668D02*
G01*
X105146402Y-123844788D01*
X105213124Y-123856513D01*
X105276163Y-123873422D01*
X105338763Y-123896097D01*
X105404167Y-123925119D01*
X105479120Y-123967067D01*
X105553967Y-124021427D01*
X105618750Y-124081801D01*
X105620860Y-124084073D01*
X105644222Y-124111380D01*
X105655701Y-124130965D01*
X105655920Y-124136536D01*
X105656271Y-124145447D01*
X105646907Y-124157443D01*
X105642381Y-124160006D01*
X105628006Y-124161639D01*
X105603822Y-124158566D01*
X105566819Y-124150527D01*
X105560892Y-124149135D01*
X105494183Y-124136206D01*
X105423715Y-124126865D01*
X105354389Y-124121505D01*
X105291109Y-124120517D01*
X105238776Y-124124295D01*
X105192826Y-124132400D01*
X105179960Y-124136425D01*
X105139040Y-124152071D01*
X105116032Y-124165839D01*
X105090854Y-124193527D01*
X105070367Y-124231142D01*
X105046714Y-124276494D01*
X105007361Y-124326858D01*
X104958290Y-124365008D01*
X104897502Y-124392815D01*
X104868262Y-124401124D01*
X104803659Y-124407768D01*
X104740005Y-124399557D01*
X104679808Y-124377578D01*
X104625580Y-124342921D01*
X104579830Y-124296675D01*
X104545071Y-124239929D01*
X104539631Y-124227384D01*
X105043537Y-124227384D01*
X105048431Y-124225325D01*
X105050259Y-124221661D01*
X105050063Y-124220861D01*
X105043537Y-124227384D01*
X104539631Y-124227384D01*
X104535184Y-124217131D01*
X104526259Y-124189049D01*
X104522086Y-124159461D01*
X104521254Y-124125000D01*
X104545834Y-124125000D01*
X104546042Y-124153933D01*
X104547138Y-124175802D01*
X104545834Y-124125000D01*
X104521254Y-124125000D01*
X104521153Y-124120833D01*
X104523959Y-124078371D01*
X104534461Y-124036814D01*
X105384922Y-124036814D01*
X105385232Y-124037191D01*
X105385395Y-124036472D01*
X105384922Y-124036814D01*
X104534461Y-124036814D01*
X104540468Y-124013041D01*
X104571171Y-123956411D01*
X105318859Y-123956411D01*
X105319491Y-123957180D01*
X105322117Y-123929435D01*
X105318859Y-123956411D01*
X104571171Y-123956411D01*
X104571596Y-123955627D01*
X104617148Y-123906449D01*
X104676931Y-123865825D01*
X104729167Y-123837500D01*
X104899627Y-123834782D01*
X104988935Y-123834571D01*
X105072754Y-123837668D01*
G37*
G36*
X102822629Y-123047588D02*
G01*
X102917322Y-123066958D01*
X103005632Y-123100440D01*
X103020241Y-123107783D01*
X103071891Y-123139364D01*
X103115796Y-123175056D01*
X103150715Y-123213028D01*
X103175408Y-123251454D01*
X103188634Y-123288503D01*
X103189040Y-123315032D01*
X103189152Y-123322348D01*
X103175723Y-123351160D01*
X103170688Y-123356323D01*
X103145092Y-123368307D01*
X103109214Y-123370623D01*
X103065568Y-123363346D01*
X103020783Y-123347962D01*
X103103653Y-123347962D01*
X103106764Y-123348612D01*
X103106769Y-123346316D01*
X103103653Y-123347962D01*
X103020783Y-123347962D01*
X103016667Y-123346548D01*
X102989390Y-123335046D01*
X102971125Y-123327654D01*
X103030109Y-123327654D01*
X103048853Y-123334367D01*
X103042054Y-123330000D01*
X103030109Y-123327654D01*
X102971125Y-123327654D01*
X102938762Y-123314556D01*
X102897574Y-123299734D01*
X102861965Y-123289573D01*
X102828074Y-123283064D01*
X102792039Y-123279201D01*
X102750000Y-123276976D01*
X102722649Y-123276274D01*
X102653682Y-123278550D01*
X102592578Y-123288039D01*
X102533555Y-123305908D01*
X102470834Y-123333325D01*
X102454008Y-123341815D01*
X102403509Y-123370694D01*
X102354458Y-123404526D01*
X102305180Y-123444864D01*
X102253998Y-123493262D01*
X102199234Y-123551270D01*
X102139211Y-123620443D01*
X102072253Y-123702332D01*
X102059511Y-123718201D01*
X102027044Y-123757734D01*
X102002559Y-123785735D01*
X101984660Y-123803645D01*
X101971948Y-123812906D01*
X101963027Y-123814958D01*
X101953374Y-123809625D01*
X101947062Y-123789880D01*
X101949188Y-123755873D01*
X101949835Y-123752918D01*
X101996837Y-123752918D01*
X101997030Y-123752963D01*
X101997047Y-123752899D01*
X101996837Y-123752918D01*
X101949835Y-123752918D01*
X101959746Y-123707665D01*
X101978730Y-123645317D01*
X101979099Y-123644213D01*
X102025663Y-123527609D01*
X102083385Y-123421318D01*
X102151505Y-123326269D01*
X102229264Y-123243389D01*
X102315902Y-123173607D01*
X102410658Y-123117852D01*
X102427513Y-123109838D01*
X102523997Y-123073454D01*
X102623593Y-123050905D01*
X102723928Y-123042260D01*
X102822629Y-123047588D01*
G37*
G36*
X105394461Y-123053941D02*
G01*
X105493673Y-123078985D01*
X105589343Y-123117852D01*
X105674045Y-123166178D01*
X105754668Y-123227795D01*
X105827733Y-123301699D01*
X105894541Y-123389215D01*
X105956393Y-123491666D01*
X105970950Y-123520260D01*
X105991690Y-123566594D01*
X106011156Y-123616021D01*
X106028381Y-123665510D01*
X106042402Y-123712029D01*
X106052255Y-123752546D01*
X106056974Y-123784031D01*
X106056310Y-123793378D01*
X106055595Y-123803451D01*
X106053376Y-123808348D01*
X106045405Y-123816240D01*
X106033799Y-123815127D01*
X106017379Y-123804076D01*
X105994967Y-123782153D01*
X105965383Y-123748425D01*
X105927448Y-123701956D01*
X105906047Y-123675364D01*
X105841376Y-123597535D01*
X105783113Y-123531951D01*
X105729579Y-123477058D01*
X105679097Y-123431302D01*
X105629986Y-123393130D01*
X105580569Y-123360989D01*
X105529167Y-123333325D01*
X105506205Y-123322467D01*
X105445452Y-123298559D01*
X105386354Y-123283786D01*
X105323130Y-123276981D01*
X105250000Y-123276976D01*
X105225350Y-123278078D01*
X105188152Y-123280958D01*
X105154769Y-123285914D01*
X105121412Y-123293928D01*
X105084292Y-123305985D01*
X105039622Y-123323068D01*
X104983611Y-123346162D01*
X104968616Y-123352101D01*
X104920968Y-123365987D01*
X104879342Y-123370512D01*
X104846271Y-123365596D01*
X104824290Y-123351160D01*
X104819351Y-123344201D01*
X104809689Y-123313903D01*
X104813649Y-123279048D01*
X104829991Y-123241467D01*
X104857475Y-123202987D01*
X104873966Y-123186423D01*
X105139936Y-123186423D01*
X105145639Y-123190000D01*
X105154415Y-123188595D01*
X105139936Y-123186423D01*
X104873966Y-123186423D01*
X104894859Y-123165437D01*
X104940904Y-123130645D01*
X104994369Y-123100440D01*
X105009689Y-123093368D01*
X105099324Y-123062431D01*
X105194913Y-123045594D01*
X105294084Y-123042787D01*
X105394461Y-123053941D01*
G37*
G36*
X102939823Y-123841323D02*
G01*
X103024851Y-123852699D01*
X103103662Y-123870780D01*
X103179459Y-123896140D01*
X103255446Y-123929350D01*
X103285181Y-123944735D01*
X103332999Y-123973303D01*
X103378978Y-124004995D01*
X103420981Y-124037969D01*
X103456871Y-124070382D01*
X103484511Y-124100392D01*
X103501766Y-124126157D01*
X103505440Y-124141431D01*
X103506499Y-124145833D01*
X103501329Y-124155788D01*
X103487296Y-124161128D01*
X103462732Y-124161157D01*
X103425885Y-124155868D01*
X103375000Y-124145252D01*
X103367600Y-124143618D01*
X103329188Y-124136772D01*
X103287176Y-124132314D01*
X103237226Y-124129895D01*
X103175000Y-124129166D01*
X103171152Y-124129167D01*
X103121748Y-124129406D01*
X103085392Y-124130338D01*
X103058696Y-124132349D01*
X103038271Y-124135821D01*
X103020728Y-124141139D01*
X103002678Y-124148687D01*
X102972612Y-124163760D01*
X102950755Y-124180492D01*
X102935322Y-124202793D01*
X102921329Y-124236013D01*
X102919667Y-124240312D01*
X102895080Y-124284132D01*
X102859097Y-124326386D01*
X102816191Y-124362554D01*
X102770834Y-124388115D01*
X102764980Y-124390519D01*
X102738568Y-124399963D01*
X102714001Y-124405103D01*
X102685137Y-124406816D01*
X102645834Y-124405980D01*
X102588325Y-124400215D01*
X102538340Y-124385821D01*
X102494612Y-124360947D01*
X102452507Y-124323618D01*
X102424961Y-124290890D01*
X102392821Y-124234071D01*
X102375083Y-124173780D01*
X102371303Y-124112197D01*
X102381040Y-124051501D01*
X102403851Y-123993875D01*
X102439293Y-123941498D01*
X102486926Y-123896550D01*
X102546306Y-123861212D01*
X102554351Y-123857613D01*
X102571933Y-123850771D01*
X102590335Y-123845810D01*
X102612726Y-123842313D01*
X102642275Y-123839868D01*
X102682151Y-123838059D01*
X102735524Y-123836472D01*
X102738299Y-123836400D01*
X102845374Y-123836081D01*
X102939823Y-123841323D01*
G37*
G36*
X103158971Y-124684563D02*
G01*
X103184579Y-124705766D01*
X103206042Y-124739414D01*
X103221365Y-124784797D01*
X103223493Y-124793650D01*
X103249268Y-124863437D01*
X103289877Y-124927439D01*
X103345625Y-124985984D01*
X103416817Y-125039400D01*
X103503758Y-125088015D01*
X103583925Y-125123919D01*
X103684686Y-125160944D01*
X103794162Y-125192829D01*
X103913611Y-125219817D01*
X104044289Y-125242151D01*
X104187451Y-125260074D01*
X104344356Y-125273828D01*
X104516258Y-125283657D01*
X104564237Y-125285850D01*
X104619384Y-125288560D01*
X104667787Y-125291144D01*
X104706971Y-125293464D01*
X104734456Y-125295378D01*
X104747767Y-125296748D01*
X104762892Y-125304531D01*
X104780732Y-125324449D01*
X104794209Y-125350350D01*
X104799561Y-125376443D01*
X104798557Y-125381105D01*
X104795888Y-125393494D01*
X104781662Y-125418931D01*
X104761186Y-125441450D01*
X104739274Y-125454796D01*
X104726658Y-125457524D01*
X104700271Y-125461751D01*
X104665033Y-125466594D01*
X104625057Y-125471453D01*
X104595905Y-125474108D01*
X104541113Y-125477136D01*
X104474808Y-125479157D01*
X104400035Y-125480204D01*
X104319842Y-125480313D01*
X104237274Y-125479518D01*
X104155377Y-125477854D01*
X104077198Y-125475354D01*
X104005782Y-125472053D01*
X103944176Y-125467987D01*
X103907415Y-125464369D01*
X104399194Y-125464369D01*
X104450179Y-125464272D01*
X104433593Y-125464228D01*
X104399194Y-125464369D01*
X103907415Y-125464369D01*
X103895425Y-125463189D01*
X103832400Y-125454967D01*
X103803794Y-125450843D01*
X104598823Y-125450843D01*
X104599410Y-125453051D01*
X104600442Y-125449767D01*
X104600368Y-125449764D01*
X104598823Y-125450843D01*
X103803794Y-125450843D01*
X103737995Y-125441357D01*
X103646045Y-125426630D01*
X103558571Y-125411188D01*
X103556480Y-125410781D01*
X104656205Y-125410781D01*
X104676601Y-125445024D01*
X104656229Y-125410764D01*
X104656205Y-125410781D01*
X103556480Y-125410781D01*
X103477588Y-125395428D01*
X103430098Y-125385155D01*
X104640942Y-125385155D01*
X104641855Y-125386688D01*
X104641887Y-125386645D01*
X104640983Y-125385124D01*
X104640942Y-125385155D01*
X103430098Y-125385155D01*
X103405116Y-125379751D01*
X103343171Y-125364556D01*
X103293773Y-125350241D01*
X103258938Y-125337208D01*
X103232886Y-125323778D01*
X103229386Y-125321166D01*
X103268966Y-125321166D01*
X103270377Y-125321797D01*
X103269332Y-125316766D01*
X103268966Y-125321166D01*
X103229386Y-125321166D01*
X103178050Y-125282853D01*
X103131917Y-125228447D01*
X103094171Y-125160135D01*
X103064493Y-125077493D01*
X103064249Y-125076633D01*
X103056095Y-125038427D01*
X103050040Y-124991454D01*
X103046128Y-124939323D01*
X103044404Y-124885642D01*
X103044910Y-124834020D01*
X103047691Y-124788065D01*
X103052790Y-124751385D01*
X103060252Y-124727589D01*
X103077210Y-124702695D01*
X103103293Y-124682319D01*
X103131211Y-124676511D01*
X103158971Y-124684563D01*
G37*
D13*
%TO.C,U1*%
X103470000Y-121058000D02*
X117440000Y-121058000D01*
D14*
X105960000Y-100103000D02*
X105963728Y-99092728D01*
X106463728Y-98593000D02*
X114459000Y-98593000D01*
X114959000Y-99093000D02*
X114959000Y-100103000D01*
D13*
X117440000Y-100103000D02*
X101650000Y-100103000D01*
D14*
X105963728Y-99092728D02*
G75*
G02*
X106463728Y-98593001I500018J-291D01*
G01*
X114459000Y-98593000D02*
G75*
G02*
X114959000Y-99093000I0J-500000D01*
G01*
%TD*%
%LPC*%
D15*
%TO.C,U1*%
X102150000Y-103020000D03*
X102150000Y-105560000D03*
X102150000Y-108100000D03*
X102150000Y-110640000D03*
X102150000Y-113180000D03*
X102150000Y-115720000D03*
X102150000Y-118260000D03*
X118815000Y-118260000D03*
X118815000Y-115720000D03*
X118815000Y-113180000D03*
X118815000Y-110640000D03*
X118815000Y-108100000D03*
X118815000Y-105560000D03*
X118815000Y-103020000D03*
D16*
X106010000Y-110258000D03*
X106010000Y-108353000D03*
D17*
X109185000Y-102008000D03*
X111725000Y-102008000D03*
X109185000Y-104548000D03*
X111725000Y-104548000D03*
X109185000Y-107088000D03*
X111725000Y-107088000D03*
%TD*%
D18*
%TO.C,J2*%
X108000000Y-122900000D03*
D19*
X110540000Y-122900000D03*
X113080000Y-122900000D03*
%TD*%
%LPD*%
M02*
