M48
; DRILL file {KiCad 8.0.4} date 2025-01-29T23:36:48-0500
; FORMAT={-:-/ absolute / inch / decimal}
; #@! TF.CreationDate,2025-01-29T23:36:48-05:00
; #@! TF.GenerationSoftware,Kicad,Pcbnew,8.0.4
; #@! TF.FileFunction,Plated,1,4,PTH
FMAT,2
INCH
; #@! TA.AperFunction,Plated,PTH,ViaDrill
T1C0.0118
; #@! TA.AperFunction,Plated,PTH,ComponentDrill
T2C0.0394
%
G90
G05
T1
X3.9803Y-4.7992
X3.9862Y-3.9882
X3.9902Y-4.5551
X3.9921Y-4.6555
X3.9921Y-4.9528
X4.0492Y-3.9921
X4.1277Y-4.3128
X4.128Y-3.9921
X4.128Y-4.0709
X4.1299Y-4.1634
X4.1555Y-4.3406
X4.1713Y-4.3878
X4.1732Y-4.5748
X4.1732Y-4.6201
X4.1736Y-4.2659
X4.1856Y-4.7116
X4.1969Y-4.2776
X4.2028Y-4.3425
X4.2028Y-4.9685
X4.2087Y-4.5748
X4.2087Y-4.6201
X4.2146Y-4.063
X4.2244Y-4.0
X4.2362Y-4.4843
X4.2441Y-4.6201
X4.2461Y-4.5748
X4.248Y-4.2598
X4.3445Y-4.9685
X4.3484Y-4.065
X4.3563Y-4.565
X4.3622Y-4.1516
X4.374Y-4.3996
X4.4213Y-4.624
X4.4331Y-4.4862
X4.436Y-4.2598
X4.4409Y-4.1575
X4.4724Y-4.0571
X4.4764Y-4.9705
X4.4843Y-4.3504
X4.4862Y-4.7028
X4.5217Y-4.3366
X4.5256Y-4.4803
X4.5256Y-4.6299
X4.5374Y-4.8819
X4.5453Y-4.6791
X4.5472Y-4.7441
X4.5571Y-4.8012
X4.5669Y-4.3583
X4.5748Y-4.0039
X4.5753Y-4.1693
X4.5753Y-4.2543
X4.5925Y-4.3878
X4.6083Y-4.7559
X4.6594Y-4.7579
X4.6778Y-4.3559
X4.6778Y-4.4559
X4.6778Y-4.5559
X4.6778Y-4.6559
X4.7087Y-4.7913
X4.7106Y-3.9823
X4.7126Y-4.1575
X4.7146Y-4.8484
X4.7244Y-4.7283
X4.7244Y-4.8917
T2
X4.252Y-4.8386
X4.352Y-4.8386
X4.452Y-4.8386
M30
