%TF.GenerationSoftware,KiCad,Pcbnew,8.0.4*%
%TF.CreationDate,2025-01-29T23:36:48-05:00*%
%TF.ProjectId,Raidillon,52616964-696c-46c6-9f6e-2e6b69636164,rev?*%
%TF.SameCoordinates,Original*%
%TF.FileFunction,Soldermask,Bot*%
%TF.FilePolarity,Negative*%
%FSLAX46Y46*%
G04 Gerber Fmt 4.6, Leading zero omitted, Abs format (unit mm)*
G04 Created by KiCad (PCBNEW 8.0.4) date 2025-01-29 23:36:48*
%MOMM*%
%LPD*%
G01*
G04 APERTURE LIST*
G04 Aperture macros list*
%AMRoundRect*
0 Rectangle with rounded corners*
0 $1 Rounding radius*
0 $2 $3 $4 $5 $6 $7 $8 $9 X,Y pos of 4 corners*
0 Add a 4 corners polygon primitive as box body*
4,1,4,$2,$3,$4,$5,$6,$7,$8,$9,$2,$3,0*
0 Add four circle primitives for the rounded corners*
1,1,$1+$1,$2,$3*
1,1,$1+$1,$4,$5*
1,1,$1+$1,$6,$7*
1,1,$1+$1,$8,$9*
0 Add four rect primitives between the rounded corners*
20,1,$1+$1,$2,$3,$4,$5,0*
20,1,$1+$1,$4,$5,$6,$7,0*
20,1,$1+$1,$6,$7,$8,$9,0*
20,1,$1+$1,$8,$9,$2,$3,0*%
G04 Aperture macros list end*
%ADD10RoundRect,0.270833X-0.379167X-0.479167X0.379167X-0.479167X0.379167X0.479167X-0.379167X0.479167X0*%
%ADD11RoundRect,0.271277X-0.366223X-0.503723X0.366223X-0.503723X0.366223X0.503723X-0.366223X0.503723X0*%
%ADD12RoundRect,0.120000X0.480000X-0.930000X0.480000X0.930000X-0.480000X0.930000X-0.480000X-0.930000X0*%
%ADD13RoundRect,0.090000X0.360000X-0.360000X0.360000X0.360000X-0.360000X0.360000X-0.360000X-0.360000X0*%
%ADD14RoundRect,0.271277X0.366223X0.503723X-0.366223X0.503723X-0.366223X-0.503723X0.366223X-0.503723X0*%
%ADD15RoundRect,0.270833X0.379167X0.479167X-0.379167X0.479167X-0.379167X-0.479167X0.379167X-0.479167X0*%
%ADD16RoundRect,0.271277X0.503723X-0.366223X0.503723X0.366223X-0.503723X0.366223X-0.503723X-0.366223X0*%
%ADD17RoundRect,0.271739X0.353261X0.478261X-0.353261X0.478261X-0.353261X-0.478261X0.353261X-0.478261X0*%
%ADD18RoundRect,0.270833X0.479167X-0.379167X0.479167X0.379167X-0.479167X0.379167X-0.479167X-0.379167X0*%
%ADD19RoundRect,0.270833X-0.479167X0.379167X-0.479167X-0.379167X0.479167X-0.379167X0.479167X0.379167X0*%
%ADD20R,1.700000X1.700000*%
%ADD21O,1.700000X1.700000*%
%ADD22RoundRect,0.300000X-0.300000X-1.550000X0.300000X-1.550000X0.300000X1.550000X-0.300000X1.550000X0*%
%ADD23RoundRect,0.283334X-0.566666X-1.516666X0.566666X-1.516666X0.566666X1.516666X-0.566666X1.516666X0*%
%ADD24RoundRect,0.100000X-0.175000X-0.100000X0.175000X-0.100000X0.175000X0.100000X-0.175000X0.100000X0*%
%ADD25RoundRect,0.100000X-0.100000X-0.175000X0.100000X-0.175000X0.100000X0.175000X-0.100000X0.175000X0*%
%ADD26R,0.375000X0.350000*%
%ADD27R,0.350000X0.375000*%
%ADD28RoundRect,0.185000X-0.185000X0.860000X-0.185000X-0.860000X0.185000X-0.860000X0.185000X0.860000X0*%
%ADD29RoundRect,0.070000X-1.550000X1.205000X-1.550000X-1.205000X1.550000X-1.205000X1.550000X1.205000X0*%
G04 APERTURE END LIST*
D10*
%TO.C,R8*%
X102850000Y-103400000D03*
X104850000Y-103400000D03*
%TD*%
D11*
%TO.C,C1*%
X116212500Y-108060000D03*
X118287500Y-108060000D03*
%TD*%
D10*
%TO.C,R7*%
X102850000Y-105400000D03*
X104850000Y-105400000D03*
%TD*%
D11*
%TO.C,C9*%
X116742500Y-125450000D03*
X118817500Y-125450000D03*
%TD*%
D12*
%TO.C,D1*%
X105150000Y-124980000D03*
D13*
X105150000Y-123080000D03*
%TD*%
D14*
%TO.C,C10*%
X112987500Y-111750000D03*
X110912500Y-111750000D03*
%TD*%
D15*
%TO.C,R1*%
X118200000Y-101700000D03*
X116200000Y-101700000D03*
%TD*%
D16*
%TO.C,C8*%
X110750000Y-119937500D03*
X110750000Y-117862500D03*
%TD*%
D14*
%TO.C,C4*%
X104842976Y-109546000D03*
X102767976Y-109546000D03*
%TD*%
%TO.C,C5*%
X104837500Y-111600000D03*
X102762500Y-111600000D03*
%TD*%
D17*
%TO.C,D2*%
X118225000Y-103750000D03*
X116175000Y-103750000D03*
%TD*%
D14*
%TO.C,C3*%
X104837500Y-107450000D03*
X102762500Y-107450000D03*
%TD*%
D10*
%TO.C,R5*%
X110600000Y-113950000D03*
X112600000Y-113950000D03*
%TD*%
D11*
%TO.C,C2*%
X116212500Y-105900000D03*
X118287500Y-105900000D03*
%TD*%
D10*
%TO.C,R9*%
X102850000Y-101400000D03*
X104850000Y-101400000D03*
%TD*%
D18*
%TO.C,R2*%
X103200000Y-119700000D03*
X103200000Y-117700000D03*
%TD*%
D19*
%TO.C,R6*%
X103200000Y-121550000D03*
X103200000Y-123550000D03*
%TD*%
D20*
%TO.C,J2*%
X108000000Y-122900000D03*
D21*
X110540000Y-122900000D03*
X113080000Y-122900000D03*
%TD*%
D22*
%TO.C,J1*%
X109400000Y-107850000D03*
X111400000Y-107850000D03*
D23*
X107050000Y-102100000D03*
X113750000Y-102100000D03*
%TD*%
D24*
%TO.C,U2*%
X116925000Y-123150000D03*
X116925000Y-122550000D03*
D25*
X117250000Y-121925000D03*
X117850000Y-121925000D03*
X118450000Y-121925000D03*
D24*
X118775000Y-122550000D03*
X118775000Y-123150000D03*
D25*
X118450000Y-123775000D03*
X117850000Y-123775000D03*
X117250000Y-123775000D03*
%TD*%
D26*
%TO.C,U3*%
X115962500Y-111300000D03*
X115962500Y-111800000D03*
X115962500Y-112300000D03*
X115962500Y-112800000D03*
D27*
X115450000Y-112812500D03*
X114950000Y-112812500D03*
D26*
X114437500Y-112800000D03*
X114437500Y-112300000D03*
X114437500Y-111800000D03*
X114437500Y-111300000D03*
D27*
X114950000Y-111287500D03*
X115450000Y-111287500D03*
%TD*%
D28*
%TO.C,U4*%
X105045000Y-113925000D03*
X106315000Y-113925000D03*
X107585000Y-113925000D03*
X108855000Y-113925000D03*
X108855000Y-119675000D03*
X107585000Y-119675000D03*
X106315000Y-119675000D03*
X105045000Y-119675000D03*
D29*
X106950000Y-116800000D03*
%TD*%
D14*
%TO.C,C6*%
X108987500Y-111700000D03*
X106912500Y-111700000D03*
%TD*%
D15*
%TO.C,R4*%
X112600000Y-115950000D03*
X110600000Y-115950000D03*
%TD*%
D18*
%TO.C,R3*%
X103200000Y-115800000D03*
X103200000Y-113800000D03*
%TD*%
M02*
