%TF.GenerationSoftware,KiCad,Pcbnew,8.0.4*%
%TF.CreationDate,2025-01-29T23:36:48-05:00*%
%TF.ProjectId,Raidillon,52616964-696c-46c6-9f6e-2e6b69636164,rev?*%
%TF.SameCoordinates,Original*%
%TF.FileFunction,Copper,L2,Inr*%
%TF.FilePolarity,Positive*%
%FSLAX46Y46*%
G04 Gerber Fmt 4.6, Leading zero omitted, Abs format (unit mm)*
G04 Created by KiCad (PCBNEW 8.0.4) date 2025-01-29 23:36:48*
%MOMM*%
%LPD*%
G01*
G04 APERTURE LIST*
%TA.AperFunction,ComponentPad*%
%ADD10R,1.700000X1.700000*%
%TD*%
%TA.AperFunction,ComponentPad*%
%ADD11O,1.700000X1.700000*%
%TD*%
%TA.AperFunction,ViaPad*%
%ADD12C,0.600000*%
%TD*%
%TA.AperFunction,ViaPad*%
%ADD13C,0.450000*%
%TD*%
%TA.AperFunction,Conductor*%
%ADD14C,0.127000*%
%TD*%
G04 APERTURE END LIST*
D10*
%TO.N,GND*%
%TO.C,J2*%
X108000000Y-122900000D03*
D11*
%TO.N,+BATT_FUSED*%
X110540000Y-122900000D03*
%TO.N,/MCU/PWM*%
X113080000Y-122900000D03*
%TD*%
D12*
%TO.N,+BATT*%
X104842976Y-109546000D03*
X105550000Y-110250000D03*
X106750000Y-110300000D03*
%TO.N,+3.3V*%
X116212500Y-105900000D03*
X102850000Y-101400000D03*
X116212500Y-108060000D03*
%TO.N,GND*%
X119650000Y-101150000D03*
X107050000Y-103200000D03*
X107800000Y-117350000D03*
X101400000Y-125800000D03*
X110650000Y-115950000D03*
X113600000Y-103050000D03*
X107850000Y-116200000D03*
X101100000Y-121900000D03*
X115250000Y-124000000D03*
X106000000Y-116200000D03*
X106010000Y-108353000D03*
X117050000Y-120800000D03*
X115500000Y-120500000D03*
X106750000Y-126200000D03*
X110800000Y-105450000D03*
X106000000Y-117350000D03*
X111100000Y-111750000D03*
X113700000Y-126250000D03*
X107300000Y-101600000D03*
X110450000Y-103250000D03*
X119700000Y-105600000D03*
X115750000Y-121950000D03*
X120000000Y-124250000D03*
X101250000Y-101300000D03*
X106900000Y-116200000D03*
X116200000Y-101700000D03*
X114950000Y-113800000D03*
X110350000Y-126200000D03*
X112675000Y-108200000D03*
X114950000Y-117600000D03*
X120000000Y-120100000D03*
X106600000Y-108650000D03*
X106900000Y-117350000D03*
X112800000Y-105600000D03*
X112300000Y-117450000D03*
X105950000Y-111450000D03*
%TO.N,/MCU/PWM*%
X118815000Y-118260000D03*
%TO.N,/VMON*%
X112600000Y-113950000D03*
D13*
X107600000Y-113900000D03*
D12*
%TO.N,/IMON*%
X106315000Y-119675000D03*
%TO.N,/MCU/INT1_ACCEL*%
X114850000Y-110150000D03*
X101400000Y-118250000D03*
%TO.N,/MCU/CS_ACCEL*%
X116650000Y-111450000D03*
X104900000Y-105750000D03*
%TO.N,/MCU/INT_BARO*%
X119750000Y-123150000D03*
X115450000Y-118850000D03*
%TO.N,/MCU/INT2_ACCEL*%
X113900000Y-110500000D03*
X101350000Y-115700000D03*
%TO.N,/MCU/CS_BARO*%
X113950000Y-119450000D03*
X107900000Y-108200000D03*
X119600000Y-121700000D03*
X104850000Y-103400000D03*
%TO.N,/MCU/MOSI*%
X118815000Y-110640000D03*
%TO.N,/MCU/MISO*%
X118815000Y-113180000D03*
X118350000Y-120850000D03*
%TO.N,/MCU/CLK*%
X118815000Y-115720000D03*
X116000000Y-110700000D03*
%TO.N,/MCU/CHIP_EN*%
X104850000Y-101400000D03*
%TD*%
D14*
%TO.N,/MCU/PWM*%
X113990000Y-118260000D02*
X118815000Y-118260000D01*
X113080000Y-119170000D02*
X113990000Y-118260000D01*
X113080000Y-122900000D02*
X113080000Y-119170000D01*
%TO.N,/MCU/INT1_ACCEL*%
X108523000Y-109877000D02*
X114577000Y-109877000D01*
X101400000Y-118250000D02*
X102100000Y-118250000D01*
X104300000Y-114100000D02*
X108523000Y-109877000D01*
X114577000Y-109877000D02*
X114850000Y-110150000D01*
X102100000Y-118250000D02*
X104300000Y-116050000D01*
X104300000Y-116050000D02*
X104300000Y-114100000D01*
%TO.N,/MCU/CS_ACCEL*%
X104950000Y-105800000D02*
X104900000Y-105750000D01*
X116650000Y-111450000D02*
X116650000Y-110450000D01*
X115750000Y-109550000D02*
X107600000Y-109550000D01*
X107300000Y-109250000D02*
X107300000Y-108150000D01*
X107300000Y-108150000D02*
X104900000Y-105750000D01*
X107600000Y-109550000D02*
X107300000Y-109250000D01*
X116650000Y-110450000D02*
X115750000Y-109550000D01*
%TO.N,/MCU/INT_BARO*%
X117850000Y-118850000D02*
X120200000Y-121200000D01*
X115450000Y-118850000D02*
X117850000Y-118850000D01*
X120200000Y-121200000D02*
X120200000Y-122700000D01*
X120200000Y-122700000D02*
X119750000Y-123150000D01*
%TO.N,/MCU/INT2_ACCEL*%
X100750000Y-116300000D02*
X100750000Y-118500000D01*
X109350000Y-110500000D02*
X113900000Y-110500000D01*
X105000000Y-114850000D02*
X109350000Y-110500000D01*
X101350000Y-115700000D02*
X100750000Y-116300000D01*
X102700000Y-118950000D02*
X105000000Y-116650000D01*
X100750000Y-118500000D02*
X101200000Y-118950000D01*
X101200000Y-118950000D02*
X102700000Y-118950000D01*
X105000000Y-116650000D02*
X105000000Y-114850000D01*
%TO.N,/MCU/CS_BARO*%
X119600000Y-121250000D02*
X117800000Y-119450000D01*
X119600000Y-121700000D02*
X119600000Y-121250000D01*
X117800000Y-119450000D02*
X113950000Y-119450000D01*
%TO.N,/MCU/CLK*%
X115450000Y-110700000D02*
X116000000Y-110700000D01*
X115200000Y-112100000D02*
X115200000Y-110950000D01*
X115200000Y-110950000D02*
X115450000Y-110700000D01*
X118815000Y-115720000D02*
X118815000Y-115715000D01*
X118815000Y-115715000D02*
X115200000Y-112100000D01*
%TD*%
%TA.AperFunction,Conductor*%
%TO.N,GND*%
G36*
X118804418Y-100250816D02*
G01*
X119040140Y-100267674D01*
X119057641Y-100270191D01*
X119284229Y-100319482D01*
X119301188Y-100324461D01*
X119438672Y-100375740D01*
X119518462Y-100405501D01*
X119534555Y-100412851D01*
X119738068Y-100523977D01*
X119752951Y-100533542D01*
X119938579Y-100672501D01*
X119951950Y-100684087D01*
X120115912Y-100848049D01*
X120127498Y-100861420D01*
X120266457Y-101047048D01*
X120276022Y-101061931D01*
X120387148Y-101265444D01*
X120394498Y-101281537D01*
X120475535Y-101498803D01*
X120480519Y-101515779D01*
X120529807Y-101742352D01*
X120532325Y-101759864D01*
X120549184Y-101995581D01*
X120549500Y-102004427D01*
X120549500Y-120452522D01*
X120529815Y-120519561D01*
X120477011Y-120565316D01*
X120407853Y-120575260D01*
X120344297Y-120546235D01*
X120337819Y-120540203D01*
X119021739Y-119224123D01*
X118988254Y-119162800D01*
X118993238Y-119093108D01*
X119035110Y-119037175D01*
X119068463Y-119019401D01*
X119164522Y-118985789D01*
X119317262Y-118889816D01*
X119444816Y-118762262D01*
X119540789Y-118609522D01*
X119600368Y-118439255D01*
X119620565Y-118260000D01*
X119600368Y-118080745D01*
X119540789Y-117910478D01*
X119444816Y-117757738D01*
X119317262Y-117630184D01*
X119253808Y-117590313D01*
X119164523Y-117534211D01*
X118994254Y-117474631D01*
X118994249Y-117474630D01*
X118815004Y-117454435D01*
X118814996Y-117454435D01*
X118635750Y-117474630D01*
X118635745Y-117474631D01*
X118465476Y-117534211D01*
X118312737Y-117630184D01*
X118283241Y-117659681D01*
X118221918Y-117693166D01*
X118195560Y-117696000D01*
X113915747Y-117696000D01*
X113860822Y-117710716D01*
X113860822Y-117710717D01*
X113772304Y-117734435D01*
X113772302Y-117734436D01*
X113772301Y-117734436D01*
X113643699Y-117808685D01*
X113643693Y-117808689D01*
X112628689Y-118823693D01*
X112628685Y-118823699D01*
X112570525Y-118924435D01*
X112554434Y-118952304D01*
X112524507Y-119063999D01*
X112516000Y-119095747D01*
X112516000Y-121593888D01*
X112496315Y-121660927D01*
X112444406Y-121706269D01*
X112402176Y-121725961D01*
X112402169Y-121725965D01*
X112208597Y-121861505D01*
X112041505Y-122028597D01*
X111911575Y-122214158D01*
X111856998Y-122257783D01*
X111787500Y-122264977D01*
X111725145Y-122233454D01*
X111708425Y-122214158D01*
X111578494Y-122028597D01*
X111411402Y-121861506D01*
X111411395Y-121861501D01*
X111217834Y-121725967D01*
X111217830Y-121725965D01*
X111146727Y-121692809D01*
X111003663Y-121626097D01*
X111003659Y-121626096D01*
X111003655Y-121626094D01*
X110775413Y-121564938D01*
X110775403Y-121564936D01*
X110540001Y-121544341D01*
X110539999Y-121544341D01*
X110304596Y-121564936D01*
X110304586Y-121564938D01*
X110076344Y-121626094D01*
X110076335Y-121626098D01*
X109862171Y-121725964D01*
X109862169Y-121725965D01*
X109668600Y-121861503D01*
X109546284Y-121983819D01*
X109484961Y-122017303D01*
X109415269Y-122012319D01*
X109359336Y-121970447D01*
X109342421Y-121939470D01*
X109293354Y-121807913D01*
X109293350Y-121807906D01*
X109207190Y-121692812D01*
X109207187Y-121692809D01*
X109092093Y-121606649D01*
X109092086Y-121606645D01*
X108957379Y-121556403D01*
X108957372Y-121556401D01*
X108897844Y-121550000D01*
X108250000Y-121550000D01*
X108250000Y-122466988D01*
X108192993Y-122434075D01*
X108065826Y-122400000D01*
X107934174Y-122400000D01*
X107807007Y-122434075D01*
X107750000Y-122466988D01*
X107750000Y-121550000D01*
X107102155Y-121550000D01*
X107042627Y-121556401D01*
X107042620Y-121556403D01*
X106907913Y-121606645D01*
X106907906Y-121606649D01*
X106792812Y-121692809D01*
X106792809Y-121692812D01*
X106706649Y-121807906D01*
X106706645Y-121807913D01*
X106656403Y-121942620D01*
X106656401Y-121942627D01*
X106650000Y-122002155D01*
X106650000Y-122650000D01*
X107566988Y-122650000D01*
X107534075Y-122707007D01*
X107500000Y-122834174D01*
X107500000Y-122965826D01*
X107534075Y-123092993D01*
X107566988Y-123150000D01*
X106650000Y-123150000D01*
X106650000Y-123797844D01*
X106656401Y-123857372D01*
X106656403Y-123857379D01*
X106706645Y-123992086D01*
X106706649Y-123992093D01*
X106792809Y-124107187D01*
X106792812Y-124107190D01*
X106907906Y-124193350D01*
X106907913Y-124193354D01*
X107042620Y-124243596D01*
X107042627Y-124243598D01*
X107102155Y-124249999D01*
X107102172Y-124250000D01*
X107750000Y-124250000D01*
X107750000Y-123333012D01*
X107807007Y-123365925D01*
X107934174Y-123400000D01*
X108065826Y-123400000D01*
X108192993Y-123365925D01*
X108250000Y-123333012D01*
X108250000Y-124250000D01*
X108897828Y-124250000D01*
X108897844Y-124249999D01*
X108957372Y-124243598D01*
X108957379Y-124243596D01*
X109092086Y-124193354D01*
X109092093Y-124193350D01*
X109207187Y-124107190D01*
X109207190Y-124107187D01*
X109293350Y-123992093D01*
X109293354Y-123992086D01*
X109342422Y-123860529D01*
X109384293Y-123804595D01*
X109449757Y-123780178D01*
X109518030Y-123795030D01*
X109546285Y-123816181D01*
X109668599Y-123938495D01*
X109745135Y-123992086D01*
X109862165Y-124074032D01*
X109862167Y-124074033D01*
X109862170Y-124074035D01*
X110076337Y-124173903D01*
X110304592Y-124235063D01*
X110475319Y-124250000D01*
X110539999Y-124255659D01*
X110540000Y-124255659D01*
X110540001Y-124255659D01*
X110604681Y-124250000D01*
X110775408Y-124235063D01*
X111003663Y-124173903D01*
X111217830Y-124074035D01*
X111411401Y-123938495D01*
X111578495Y-123771401D01*
X111708425Y-123585842D01*
X111763002Y-123542217D01*
X111832500Y-123535023D01*
X111894855Y-123566546D01*
X111911575Y-123585842D01*
X112041500Y-123771395D01*
X112041505Y-123771401D01*
X112208599Y-123938495D01*
X112285135Y-123992086D01*
X112402165Y-124074032D01*
X112402167Y-124074033D01*
X112402170Y-124074035D01*
X112616337Y-124173903D01*
X112844592Y-124235063D01*
X113015319Y-124250000D01*
X113079999Y-124255659D01*
X113080000Y-124255659D01*
X113080001Y-124255659D01*
X113144681Y-124250000D01*
X113315408Y-124235063D01*
X113543663Y-124173903D01*
X113757830Y-124074035D01*
X113951401Y-123938495D01*
X114118495Y-123771401D01*
X114254035Y-123577830D01*
X114353903Y-123363663D01*
X114415063Y-123135408D01*
X114435659Y-122900000D01*
X114415063Y-122664592D01*
X114353903Y-122436337D01*
X114254035Y-122222171D01*
X114248425Y-122214158D01*
X114118494Y-122028597D01*
X113951402Y-121861506D01*
X113951395Y-121861501D01*
X113757831Y-121725965D01*
X113757829Y-121725964D01*
X113715595Y-121706270D01*
X113663156Y-121660097D01*
X113644000Y-121593888D01*
X113644000Y-120359843D01*
X113663685Y-120292804D01*
X113716489Y-120247049D01*
X113781884Y-120236623D01*
X113949997Y-120255565D01*
X113950000Y-120255565D01*
X113950004Y-120255565D01*
X114129249Y-120235369D01*
X114129252Y-120235368D01*
X114129255Y-120235368D01*
X114299522Y-120175789D01*
X114452262Y-120079816D01*
X114481759Y-120050319D01*
X114543082Y-120016834D01*
X114569440Y-120014000D01*
X117515022Y-120014000D01*
X117582061Y-120033685D01*
X117602703Y-120050319D01*
X117722472Y-120170088D01*
X117755957Y-120231411D01*
X117750973Y-120301103D01*
X117724508Y-120342281D01*
X117724525Y-120342295D01*
X117724394Y-120342458D01*
X117722472Y-120345450D01*
X117720184Y-120347737D01*
X117624211Y-120500476D01*
X117564631Y-120670745D01*
X117564630Y-120670750D01*
X117544435Y-120849996D01*
X117544435Y-120850003D01*
X117564630Y-121029249D01*
X117564631Y-121029254D01*
X117624211Y-121199523D01*
X117720184Y-121352262D01*
X117847738Y-121479816D01*
X117877615Y-121498589D01*
X117983208Y-121564938D01*
X118000478Y-121575789D01*
X118144250Y-121626097D01*
X118170745Y-121635368D01*
X118170750Y-121635369D01*
X118349996Y-121655565D01*
X118350000Y-121655565D01*
X118350004Y-121655565D01*
X118529249Y-121635369D01*
X118529251Y-121635368D01*
X118529255Y-121635368D01*
X118529258Y-121635366D01*
X118529262Y-121635366D01*
X118630604Y-121599905D01*
X118700383Y-121596343D01*
X118761010Y-121631071D01*
X118793238Y-121693065D01*
X118794779Y-121703062D01*
X118814630Y-121879250D01*
X118814631Y-121879254D01*
X118874211Y-122049523D01*
X118970184Y-122202262D01*
X119097738Y-122329816D01*
X119175107Y-122378430D01*
X119221398Y-122430765D01*
X119232046Y-122499818D01*
X119203671Y-122563667D01*
X119196817Y-122571105D01*
X119120183Y-122647739D01*
X119024211Y-122800476D01*
X118964631Y-122970745D01*
X118964630Y-122970750D01*
X118944435Y-123149996D01*
X118944435Y-123150000D01*
X118964630Y-123329249D01*
X118964631Y-123329254D01*
X119024211Y-123499523D01*
X119120184Y-123652262D01*
X119247738Y-123779816D01*
X119287174Y-123804595D01*
X119371178Y-123857379D01*
X119400478Y-123875789D01*
X119570745Y-123935368D01*
X119570750Y-123935369D01*
X119749996Y-123955565D01*
X119750000Y-123955565D01*
X119750004Y-123955565D01*
X119929249Y-123935369D01*
X119929252Y-123935368D01*
X119929255Y-123935368D01*
X120099522Y-123875789D01*
X120252262Y-123779816D01*
X120337819Y-123694259D01*
X120399142Y-123660774D01*
X120468834Y-123665758D01*
X120524767Y-123707630D01*
X120549184Y-123773094D01*
X120549500Y-123781940D01*
X120549500Y-124995572D01*
X120549184Y-125004418D01*
X120532325Y-125240135D01*
X120529807Y-125257647D01*
X120480519Y-125484220D01*
X120475535Y-125501196D01*
X120394498Y-125718462D01*
X120387148Y-125734555D01*
X120276022Y-125938068D01*
X120266457Y-125952951D01*
X120127498Y-126138579D01*
X120115912Y-126151950D01*
X119951950Y-126315912D01*
X119938579Y-126327498D01*
X119752951Y-126466457D01*
X119738068Y-126476022D01*
X119534555Y-126587148D01*
X119518462Y-126594498D01*
X119301196Y-126675535D01*
X119284220Y-126680519D01*
X119057647Y-126729807D01*
X119040135Y-126732325D01*
X118804418Y-126749184D01*
X118795572Y-126749500D01*
X102004428Y-126749500D01*
X101995582Y-126749184D01*
X101759864Y-126732325D01*
X101742352Y-126729807D01*
X101515779Y-126680519D01*
X101498803Y-126675535D01*
X101281537Y-126594498D01*
X101265444Y-126587148D01*
X101061931Y-126476022D01*
X101047048Y-126466457D01*
X100861420Y-126327498D01*
X100848049Y-126315912D01*
X100684087Y-126151950D01*
X100672501Y-126138579D01*
X100533542Y-125952951D01*
X100523977Y-125938068D01*
X100412851Y-125734555D01*
X100405501Y-125718462D01*
X100375740Y-125638672D01*
X100324461Y-125501188D01*
X100319482Y-125484229D01*
X100270191Y-125257641D01*
X100267674Y-125240135D01*
X100250816Y-125004418D01*
X100250500Y-124995572D01*
X100250500Y-119674996D01*
X105509435Y-119674996D01*
X105509435Y-119675003D01*
X105529630Y-119854249D01*
X105529631Y-119854254D01*
X105589211Y-120024523D01*
X105680676Y-120170088D01*
X105685184Y-120177262D01*
X105812738Y-120304816D01*
X105965478Y-120400789D01*
X106135745Y-120460368D01*
X106135750Y-120460369D01*
X106314996Y-120480565D01*
X106315000Y-120480565D01*
X106315004Y-120480565D01*
X106494249Y-120460369D01*
X106494252Y-120460368D01*
X106494255Y-120460368D01*
X106664522Y-120400789D01*
X106817262Y-120304816D01*
X106944816Y-120177262D01*
X107040789Y-120024522D01*
X107100368Y-119854255D01*
X107120565Y-119675000D01*
X107100368Y-119495745D01*
X107040789Y-119325478D01*
X107019736Y-119291973D01*
X106944815Y-119172737D01*
X106817262Y-119045184D01*
X106664523Y-118949211D01*
X106494254Y-118889631D01*
X106494249Y-118889630D01*
X106315004Y-118869435D01*
X106314996Y-118869435D01*
X106135750Y-118889630D01*
X106135745Y-118889631D01*
X105965476Y-118949211D01*
X105812737Y-119045184D01*
X105685184Y-119172737D01*
X105589211Y-119325476D01*
X105529631Y-119495745D01*
X105529630Y-119495750D01*
X105509435Y-119674996D01*
X100250500Y-119674996D01*
X100250500Y-119097478D01*
X100270185Y-119030439D01*
X100322989Y-118984684D01*
X100392147Y-118974740D01*
X100455703Y-119003765D01*
X100462181Y-119009797D01*
X100744346Y-119291962D01*
X100744356Y-119291973D01*
X100748686Y-119296303D01*
X100748687Y-119296304D01*
X100853696Y-119401313D01*
X100982304Y-119475565D01*
X101125747Y-119514000D01*
X101125748Y-119514000D01*
X101125749Y-119514000D01*
X102774251Y-119514000D01*
X102774253Y-119514000D01*
X102917696Y-119475565D01*
X103046304Y-119401313D01*
X103151313Y-119296304D01*
X103151313Y-119296302D01*
X103161517Y-119286099D01*
X103161521Y-119286094D01*
X105336094Y-117111521D01*
X105336099Y-117111517D01*
X105346302Y-117101313D01*
X105346304Y-117101313D01*
X105451313Y-116996304D01*
X105525565Y-116867696D01*
X105536854Y-116825565D01*
X105564000Y-116724253D01*
X105564000Y-116575748D01*
X105564000Y-115134977D01*
X105583685Y-115067938D01*
X105600314Y-115047301D01*
X106675453Y-113972161D01*
X106736776Y-113938677D01*
X106806468Y-113943661D01*
X106862401Y-113985533D01*
X106886354Y-114045960D01*
X106888212Y-114062455D01*
X106942210Y-114216774D01*
X106994205Y-114299523D01*
X107029192Y-114355204D01*
X107144796Y-114470808D01*
X107283225Y-114557789D01*
X107437539Y-114611786D01*
X107437542Y-114611786D01*
X107437544Y-114611787D01*
X107599996Y-114630091D01*
X107600000Y-114630091D01*
X107600004Y-114630091D01*
X107762455Y-114611787D01*
X107762456Y-114611786D01*
X107762461Y-114611786D01*
X107916775Y-114557789D01*
X108055204Y-114470808D01*
X108170808Y-114355204D01*
X108257789Y-114216775D01*
X108311786Y-114062461D01*
X108311787Y-114062455D01*
X108324458Y-113949996D01*
X111794435Y-113949996D01*
X111794435Y-113950003D01*
X111814630Y-114129249D01*
X111814631Y-114129254D01*
X111874211Y-114299523D01*
X111909198Y-114355204D01*
X111970184Y-114452262D01*
X112097738Y-114579816D01*
X112250478Y-114675789D01*
X112420745Y-114735368D01*
X112420750Y-114735369D01*
X112599996Y-114755565D01*
X112600000Y-114755565D01*
X112600004Y-114755565D01*
X112779249Y-114735369D01*
X112779252Y-114735368D01*
X112779255Y-114735368D01*
X112949522Y-114675789D01*
X113102262Y-114579816D01*
X113229816Y-114452262D01*
X113325789Y-114299522D01*
X113385368Y-114129255D01*
X113392894Y-114062461D01*
X113405565Y-113950003D01*
X113405565Y-113949996D01*
X113385369Y-113770750D01*
X113385368Y-113770745D01*
X113325788Y-113600476D01*
X113229815Y-113447737D01*
X113102262Y-113320184D01*
X112949523Y-113224211D01*
X112779254Y-113164631D01*
X112779249Y-113164630D01*
X112600004Y-113144435D01*
X112599996Y-113144435D01*
X112420750Y-113164630D01*
X112420745Y-113164631D01*
X112250476Y-113224211D01*
X112097737Y-113320184D01*
X111970184Y-113447737D01*
X111874211Y-113600476D01*
X111814631Y-113770745D01*
X111814630Y-113770750D01*
X111794435Y-113949996D01*
X108324458Y-113949996D01*
X108330091Y-113900003D01*
X108330091Y-113899996D01*
X108311787Y-113737544D01*
X108311786Y-113737542D01*
X108311786Y-113737539D01*
X108257789Y-113583225D01*
X108170808Y-113444796D01*
X108055204Y-113329192D01*
X108040868Y-113320184D01*
X107916774Y-113242210D01*
X107762455Y-113188212D01*
X107745960Y-113186354D01*
X107681546Y-113159288D01*
X107641990Y-113101693D01*
X107639853Y-113031856D01*
X107672162Y-112975453D01*
X108567800Y-112079816D01*
X109547297Y-111100319D01*
X109608620Y-111066834D01*
X109634978Y-111064000D01*
X113280560Y-111064000D01*
X113347599Y-111083685D01*
X113368241Y-111100319D01*
X113397738Y-111129816D01*
X113550478Y-111225789D01*
X113676297Y-111269815D01*
X113720745Y-111285368D01*
X113720750Y-111285369D01*
X113899996Y-111305565D01*
X113900000Y-111305565D01*
X113900004Y-111305565D01*
X114079249Y-111285369D01*
X114079252Y-111285368D01*
X114079255Y-111285368D01*
X114249522Y-111225789D01*
X114402262Y-111129816D01*
X114424319Y-111107759D01*
X114485642Y-111074274D01*
X114555334Y-111079258D01*
X114611267Y-111121130D01*
X114635684Y-111186594D01*
X114636000Y-111195440D01*
X114636000Y-112174252D01*
X114674435Y-112317696D01*
X114748687Y-112446304D01*
X114748689Y-112446306D01*
X114860761Y-112558378D01*
X114860767Y-112558383D01*
X117977109Y-115674725D01*
X118010594Y-115736048D01*
X118012648Y-115748522D01*
X118029630Y-115899250D01*
X118029631Y-115899254D01*
X118089211Y-116069523D01*
X118172617Y-116202262D01*
X118185184Y-116222262D01*
X118312738Y-116349816D01*
X118403080Y-116406582D01*
X118433646Y-116425788D01*
X118465478Y-116445789D01*
X118578591Y-116485369D01*
X118635745Y-116505368D01*
X118635750Y-116505369D01*
X118814996Y-116525565D01*
X118815000Y-116525565D01*
X118815004Y-116525565D01*
X118994249Y-116505369D01*
X118994252Y-116505368D01*
X118994255Y-116505368D01*
X119164522Y-116445789D01*
X119317262Y-116349816D01*
X119444816Y-116222262D01*
X119540789Y-116069522D01*
X119600368Y-115899255D01*
X119600369Y-115899249D01*
X119620565Y-115720003D01*
X119620565Y-115719996D01*
X119600369Y-115540750D01*
X119600368Y-115540745D01*
X119540788Y-115370476D01*
X119444815Y-115217737D01*
X119317262Y-115090184D01*
X119164523Y-114994211D01*
X118994254Y-114934631D01*
X118994249Y-114934630D01*
X118854793Y-114918918D01*
X118790379Y-114891852D01*
X118780995Y-114883379D01*
X117077612Y-113179996D01*
X118009435Y-113179996D01*
X118009435Y-113180003D01*
X118029630Y-113359249D01*
X118029631Y-113359254D01*
X118089211Y-113529523D01*
X118164086Y-113648685D01*
X118185184Y-113682262D01*
X118312738Y-113809816D01*
X118403080Y-113866582D01*
X118456269Y-113900003D01*
X118465478Y-113905789D01*
X118635745Y-113965368D01*
X118635750Y-113965369D01*
X118814996Y-113985565D01*
X118815000Y-113985565D01*
X118815004Y-113985565D01*
X118994249Y-113965369D01*
X118994252Y-113965368D01*
X118994255Y-113965368D01*
X119164522Y-113905789D01*
X119317262Y-113809816D01*
X119444816Y-113682262D01*
X119540789Y-113529522D01*
X119600368Y-113359255D01*
X119600369Y-113359249D01*
X119620565Y-113180003D01*
X119620565Y-113179996D01*
X119600369Y-113000750D01*
X119600368Y-113000745D01*
X119540788Y-112830476D01*
X119444815Y-112677737D01*
X119317262Y-112550184D01*
X119164523Y-112454211D01*
X118994254Y-112394631D01*
X118994249Y-112394630D01*
X118815004Y-112374435D01*
X118814996Y-112374435D01*
X118635750Y-112394630D01*
X118635745Y-112394631D01*
X118465476Y-112454211D01*
X118312737Y-112550184D01*
X118185184Y-112677737D01*
X118089211Y-112830476D01*
X118029631Y-113000745D01*
X118029630Y-113000750D01*
X118009435Y-113179996D01*
X117077612Y-113179996D01*
X116335337Y-112437721D01*
X116301852Y-112376398D01*
X116306836Y-112306706D01*
X116348708Y-112250773D01*
X116414172Y-112226356D01*
X116463976Y-112233000D01*
X116470739Y-112235366D01*
X116470745Y-112235368D01*
X116470747Y-112235368D01*
X116470750Y-112235369D01*
X116649996Y-112255565D01*
X116650000Y-112255565D01*
X116650004Y-112255565D01*
X116829249Y-112235369D01*
X116829252Y-112235368D01*
X116829255Y-112235368D01*
X116999522Y-112175789D01*
X117152262Y-112079816D01*
X117279816Y-111952262D01*
X117375789Y-111799522D01*
X117435368Y-111629255D01*
X117435369Y-111629249D01*
X117455565Y-111450003D01*
X117455565Y-111449996D01*
X117435369Y-111270750D01*
X117435368Y-111270745D01*
X117383015Y-111121130D01*
X117375789Y-111100478D01*
X117279816Y-110947738D01*
X117250319Y-110918241D01*
X117216834Y-110856918D01*
X117214000Y-110830560D01*
X117214000Y-110639996D01*
X118009435Y-110639996D01*
X118009435Y-110640003D01*
X118029630Y-110819249D01*
X118029631Y-110819254D01*
X118089211Y-110989523D01*
X118158829Y-111100319D01*
X118185184Y-111142262D01*
X118312738Y-111269816D01*
X118465478Y-111365789D01*
X118635745Y-111425368D01*
X118635750Y-111425369D01*
X118814996Y-111445565D01*
X118815000Y-111445565D01*
X118815004Y-111445565D01*
X118994249Y-111425369D01*
X118994252Y-111425368D01*
X118994255Y-111425368D01*
X119164522Y-111365789D01*
X119317262Y-111269816D01*
X119444816Y-111142262D01*
X119540789Y-110989522D01*
X119600368Y-110819255D01*
X119601740Y-110807078D01*
X119620565Y-110640003D01*
X119620565Y-110639996D01*
X119600369Y-110460750D01*
X119600368Y-110460745D01*
X119584184Y-110414495D01*
X119540789Y-110290478D01*
X119444816Y-110137738D01*
X119317262Y-110010184D01*
X119298965Y-109998687D01*
X119164523Y-109914211D01*
X118994254Y-109854631D01*
X118994249Y-109854630D01*
X118815004Y-109834435D01*
X118814996Y-109834435D01*
X118635750Y-109854630D01*
X118635745Y-109854631D01*
X118465476Y-109914211D01*
X118312737Y-110010184D01*
X118185184Y-110137737D01*
X118089211Y-110290476D01*
X118029631Y-110460745D01*
X118029630Y-110460750D01*
X118009435Y-110639996D01*
X117214000Y-110639996D01*
X117214000Y-110375749D01*
X117214000Y-110375748D01*
X117208091Y-110353696D01*
X117202523Y-110332917D01*
X117191152Y-110290476D01*
X117175565Y-110232304D01*
X117155608Y-110197738D01*
X117101313Y-110103696D01*
X116996304Y-109998687D01*
X116996303Y-109998686D01*
X116991973Y-109994356D01*
X116991962Y-109994346D01*
X116208383Y-109210767D01*
X116208381Y-109210764D01*
X116096306Y-109098689D01*
X116096304Y-109098687D01*
X116081116Y-109089918D01*
X116032902Y-109039353D01*
X116019678Y-108970746D01*
X116045646Y-108905881D01*
X116102560Y-108865352D01*
X116157001Y-108859312D01*
X116212497Y-108865565D01*
X116212500Y-108865565D01*
X116212504Y-108865565D01*
X116391749Y-108845369D01*
X116391752Y-108845368D01*
X116391755Y-108845368D01*
X116562022Y-108785789D01*
X116714762Y-108689816D01*
X116842316Y-108562262D01*
X116938289Y-108409522D01*
X116997868Y-108239255D01*
X117002291Y-108200000D01*
X117018065Y-108060003D01*
X117018065Y-108059996D01*
X116997869Y-107880750D01*
X116997868Y-107880745D01*
X116938288Y-107710476D01*
X116842315Y-107557737D01*
X116714762Y-107430184D01*
X116562023Y-107334211D01*
X116391754Y-107274631D01*
X116391749Y-107274630D01*
X116212504Y-107254435D01*
X116212496Y-107254435D01*
X116033250Y-107274630D01*
X116033245Y-107274631D01*
X115862976Y-107334211D01*
X115710237Y-107430184D01*
X115582684Y-107557737D01*
X115486711Y-107710476D01*
X115427131Y-107880745D01*
X115427130Y-107880750D01*
X115406935Y-108059996D01*
X115406935Y-108060003D01*
X115427130Y-108239249D01*
X115427131Y-108239254D01*
X115486711Y-108409523D01*
X115582684Y-108562262D01*
X115710238Y-108689816D01*
X115730046Y-108702262D01*
X115817170Y-108757006D01*
X115863461Y-108809341D01*
X115874109Y-108878395D01*
X115845734Y-108942243D01*
X115787344Y-108980615D01*
X115751198Y-108986000D01*
X108545440Y-108986000D01*
X108478401Y-108966315D01*
X108432646Y-108913511D01*
X108422702Y-108844353D01*
X108451727Y-108780797D01*
X108457759Y-108774319D01*
X108491643Y-108740435D01*
X108529816Y-108702262D01*
X108625789Y-108549522D01*
X108685368Y-108379255D01*
X108701142Y-108239255D01*
X108705565Y-108200003D01*
X108705565Y-108199996D01*
X108685369Y-108020750D01*
X108685368Y-108020745D01*
X108625789Y-107850478D01*
X108529816Y-107697738D01*
X108402262Y-107570184D01*
X108382453Y-107557737D01*
X108249523Y-107474211D01*
X108079254Y-107414631D01*
X108079249Y-107414630D01*
X107900004Y-107394435D01*
X107899996Y-107394435D01*
X107720750Y-107414630D01*
X107720737Y-107414633D01*
X107550478Y-107474210D01*
X107544206Y-107477231D01*
X107542992Y-107474710D01*
X107487865Y-107490242D01*
X107421046Y-107469821D01*
X107401547Y-107453930D01*
X105847613Y-105899996D01*
X115406935Y-105899996D01*
X115406935Y-105900003D01*
X115427130Y-106079249D01*
X115427131Y-106079254D01*
X115486711Y-106249523D01*
X115568580Y-106379815D01*
X115582684Y-106402262D01*
X115710238Y-106529816D01*
X115862978Y-106625789D01*
X116033245Y-106685368D01*
X116033250Y-106685369D01*
X116212496Y-106705565D01*
X116212500Y-106705565D01*
X116212504Y-106705565D01*
X116391749Y-106685369D01*
X116391752Y-106685368D01*
X116391755Y-106685368D01*
X116562022Y-106625789D01*
X116714762Y-106529816D01*
X116842316Y-106402262D01*
X116938289Y-106249522D01*
X116997868Y-106079255D01*
X117014769Y-105929254D01*
X117018065Y-105900003D01*
X117018065Y-105899996D01*
X116997869Y-105720750D01*
X116997868Y-105720745D01*
X116945382Y-105570750D01*
X116938289Y-105550478D01*
X116842316Y-105397738D01*
X116714762Y-105270184D01*
X116562023Y-105174211D01*
X116391754Y-105114631D01*
X116391749Y-105114630D01*
X116212504Y-105094435D01*
X116212496Y-105094435D01*
X116033250Y-105114630D01*
X116033245Y-105114631D01*
X115862976Y-105174211D01*
X115710237Y-105270184D01*
X115582684Y-105397737D01*
X115486711Y-105550476D01*
X115427131Y-105720745D01*
X115427130Y-105720750D01*
X115406935Y-105899996D01*
X105847613Y-105899996D01*
X105737255Y-105789638D01*
X105703770Y-105728315D01*
X105701716Y-105715840D01*
X105685369Y-105570750D01*
X105685368Y-105570745D01*
X105625788Y-105400476D01*
X105586582Y-105338080D01*
X105529816Y-105247738D01*
X105402262Y-105120184D01*
X105393426Y-105114632D01*
X105249523Y-105024211D01*
X105079254Y-104964631D01*
X105079249Y-104964630D01*
X104900004Y-104944435D01*
X104899996Y-104944435D01*
X104720750Y-104964630D01*
X104720745Y-104964631D01*
X104550476Y-105024211D01*
X104397737Y-105120184D01*
X104270184Y-105247737D01*
X104174211Y-105400476D01*
X104114631Y-105570745D01*
X104114630Y-105570750D01*
X104094435Y-105749996D01*
X104094435Y-105750003D01*
X104114630Y-105929249D01*
X104114631Y-105929254D01*
X104174211Y-106099523D01*
X104268462Y-106249522D01*
X104270184Y-106252262D01*
X104397738Y-106379816D01*
X104550478Y-106475789D01*
X104704878Y-106529816D01*
X104720745Y-106535368D01*
X104720750Y-106535369D01*
X104832915Y-106548006D01*
X104865840Y-106551716D01*
X104930254Y-106578782D01*
X104939638Y-106587255D01*
X106699681Y-108347297D01*
X106733166Y-108408620D01*
X106736000Y-108434978D01*
X106736000Y-109324252D01*
X106743381Y-109351801D01*
X106741716Y-109421651D01*
X106702552Y-109479512D01*
X106638323Y-109507014D01*
X106637489Y-109507111D01*
X106570749Y-109514630D01*
X106570745Y-109514631D01*
X106400476Y-109574211D01*
X106242127Y-109673709D01*
X106174890Y-109692709D01*
X106108055Y-109672341D01*
X106088474Y-109656396D01*
X106052262Y-109620184D01*
X105899521Y-109524210D01*
X105729246Y-109464629D01*
X105722459Y-109463080D01*
X105723133Y-109460125D01*
X105670991Y-109437806D01*
X105631819Y-109379950D01*
X105629033Y-109369761D01*
X105628346Y-109366751D01*
X105571291Y-109203698D01*
X105568765Y-109196478D01*
X105472792Y-109043738D01*
X105345238Y-108916184D01*
X105328841Y-108905881D01*
X105192499Y-108820211D01*
X105022230Y-108760631D01*
X105022225Y-108760630D01*
X104842980Y-108740435D01*
X104842972Y-108740435D01*
X104663726Y-108760630D01*
X104663721Y-108760631D01*
X104493452Y-108820211D01*
X104340713Y-108916184D01*
X104213160Y-109043737D01*
X104117187Y-109196476D01*
X104057607Y-109366745D01*
X104057606Y-109366750D01*
X104037411Y-109545996D01*
X104037411Y-109546003D01*
X104057606Y-109725249D01*
X104057607Y-109725254D01*
X104117187Y-109895523D01*
X104182010Y-109998687D01*
X104213160Y-110048262D01*
X104340714Y-110175816D01*
X104493454Y-110271789D01*
X104663721Y-110331368D01*
X104670508Y-110332917D01*
X104669771Y-110336143D01*
X104720718Y-110357160D01*
X104760648Y-110414495D01*
X104763938Y-110426218D01*
X104764629Y-110429245D01*
X104824210Y-110599521D01*
X104849645Y-110640000D01*
X104920184Y-110752262D01*
X105047738Y-110879816D01*
X105138080Y-110936582D01*
X105155833Y-110947737D01*
X105200478Y-110975789D01*
X105301168Y-111011022D01*
X105370745Y-111035368D01*
X105370750Y-111035369D01*
X105549996Y-111055565D01*
X105550000Y-111055565D01*
X105550004Y-111055565D01*
X105729249Y-111035369D01*
X105729252Y-111035368D01*
X105729255Y-111035368D01*
X105899522Y-110975789D01*
X106052262Y-110879816D01*
X106052263Y-110879814D01*
X106057871Y-110876291D01*
X106125108Y-110857290D01*
X106191943Y-110877657D01*
X106211525Y-110893603D01*
X106247738Y-110929816D01*
X106276259Y-110947737D01*
X106376976Y-111011022D01*
X106423267Y-111063357D01*
X106433915Y-111132411D01*
X106405540Y-111196259D01*
X106398685Y-111203697D01*
X103953698Y-113648685D01*
X103848689Y-113753693D01*
X103848685Y-113753699D01*
X103774436Y-113882301D01*
X103774435Y-113882304D01*
X103736000Y-114025748D01*
X103736000Y-115765022D01*
X103716315Y-115832061D01*
X103699681Y-115852703D01*
X101990571Y-117561812D01*
X101929248Y-117595297D01*
X101859556Y-117590313D01*
X101836918Y-117579125D01*
X101749523Y-117524211D01*
X101579254Y-117464631D01*
X101579250Y-117464630D01*
X101424116Y-117447151D01*
X101359702Y-117420084D01*
X101320147Y-117362489D01*
X101314000Y-117323931D01*
X101314000Y-116620434D01*
X101333685Y-116553395D01*
X101386489Y-116507640D01*
X101424116Y-116497214D01*
X101443288Y-116495054D01*
X101529250Y-116485369D01*
X101529253Y-116485368D01*
X101529255Y-116485368D01*
X101699522Y-116425789D01*
X101852262Y-116329816D01*
X101979816Y-116202262D01*
X102075789Y-116049522D01*
X102135368Y-115879255D01*
X102138812Y-115848687D01*
X102155565Y-115700003D01*
X102155565Y-115699996D01*
X102135369Y-115520750D01*
X102135368Y-115520745D01*
X102082787Y-115370478D01*
X102075789Y-115350478D01*
X101979816Y-115197738D01*
X101852262Y-115070184D01*
X101815836Y-115047296D01*
X101699523Y-114974211D01*
X101529254Y-114914631D01*
X101529249Y-114914630D01*
X101350004Y-114894435D01*
X101349996Y-114894435D01*
X101170750Y-114914630D01*
X101170745Y-114914631D01*
X101000476Y-114974211D01*
X100847737Y-115070184D01*
X100720184Y-115197737D01*
X100624211Y-115350476D01*
X100564631Y-115520745D01*
X100564630Y-115520749D01*
X100548282Y-115665842D01*
X100521215Y-115730256D01*
X100512744Y-115739638D01*
X100462182Y-115790201D01*
X100400859Y-115823687D01*
X100331168Y-115818703D01*
X100275234Y-115776832D01*
X100250816Y-115711368D01*
X100250500Y-115702521D01*
X100250500Y-103399996D01*
X104044435Y-103399996D01*
X104044435Y-103400003D01*
X104064630Y-103579249D01*
X104064631Y-103579254D01*
X104124211Y-103749523D01*
X104220184Y-103902262D01*
X104347738Y-104029816D01*
X104500478Y-104125789D01*
X104670745Y-104185368D01*
X104670750Y-104185369D01*
X104849996Y-104205565D01*
X104850000Y-104205565D01*
X104850004Y-104205565D01*
X105029249Y-104185369D01*
X105029252Y-104185368D01*
X105029255Y-104185368D01*
X105199522Y-104125789D01*
X105352262Y-104029816D01*
X105479816Y-103902262D01*
X105575789Y-103749522D01*
X105635368Y-103579255D01*
X105655565Y-103400000D01*
X105635368Y-103220745D01*
X105575789Y-103050478D01*
X105479816Y-102897738D01*
X105352262Y-102770184D01*
X105199523Y-102674211D01*
X105029254Y-102614631D01*
X105029249Y-102614630D01*
X104850004Y-102594435D01*
X104849996Y-102594435D01*
X104670750Y-102614630D01*
X104670745Y-102614631D01*
X104500476Y-102674211D01*
X104347737Y-102770184D01*
X104220184Y-102897737D01*
X104124211Y-103050476D01*
X104064631Y-103220745D01*
X104064630Y-103220750D01*
X104044435Y-103399996D01*
X100250500Y-103399996D01*
X100250500Y-102004427D01*
X100250816Y-101995581D01*
X100267674Y-101759864D01*
X100270190Y-101742360D01*
X100319483Y-101515766D01*
X100324460Y-101498815D01*
X100361318Y-101399996D01*
X102044435Y-101399996D01*
X102044435Y-101400003D01*
X102064630Y-101579249D01*
X102064631Y-101579254D01*
X102124211Y-101749523D01*
X102125152Y-101751020D01*
X102220184Y-101902262D01*
X102347738Y-102029816D01*
X102500478Y-102125789D01*
X102670745Y-102185368D01*
X102670750Y-102185369D01*
X102849996Y-102205565D01*
X102850000Y-102205565D01*
X102850004Y-102205565D01*
X103029249Y-102185369D01*
X103029252Y-102185368D01*
X103029255Y-102185368D01*
X103199522Y-102125789D01*
X103352262Y-102029816D01*
X103479816Y-101902262D01*
X103575789Y-101749522D01*
X103635368Y-101579255D01*
X103655565Y-101400000D01*
X103655565Y-101399996D01*
X104044435Y-101399996D01*
X104044435Y-101400003D01*
X104064630Y-101579249D01*
X104064631Y-101579254D01*
X104124211Y-101749523D01*
X104125152Y-101751020D01*
X104220184Y-101902262D01*
X104347738Y-102029816D01*
X104500478Y-102125789D01*
X104670745Y-102185368D01*
X104670750Y-102185369D01*
X104849996Y-102205565D01*
X104850000Y-102205565D01*
X104850004Y-102205565D01*
X105029249Y-102185369D01*
X105029252Y-102185368D01*
X105029255Y-102185368D01*
X105199522Y-102125789D01*
X105352262Y-102029816D01*
X105479816Y-101902262D01*
X105575789Y-101749522D01*
X105635368Y-101579255D01*
X105655565Y-101400000D01*
X105640404Y-101265444D01*
X105635369Y-101220750D01*
X105635368Y-101220745D01*
X105584257Y-101074678D01*
X105575789Y-101050478D01*
X105479816Y-100897738D01*
X105352262Y-100770184D01*
X105215240Y-100684087D01*
X105199523Y-100674211D01*
X105029254Y-100614631D01*
X105029249Y-100614630D01*
X104850004Y-100594435D01*
X104849996Y-100594435D01*
X104670750Y-100614630D01*
X104670745Y-100614631D01*
X104500476Y-100674211D01*
X104347737Y-100770184D01*
X104220184Y-100897737D01*
X104124211Y-101050476D01*
X104064631Y-101220745D01*
X104064630Y-101220750D01*
X104044435Y-101399996D01*
X103655565Y-101399996D01*
X103640404Y-101265444D01*
X103635369Y-101220750D01*
X103635368Y-101220745D01*
X103584257Y-101074678D01*
X103575789Y-101050478D01*
X103479816Y-100897738D01*
X103352262Y-100770184D01*
X103215240Y-100684087D01*
X103199523Y-100674211D01*
X103029254Y-100614631D01*
X103029249Y-100614630D01*
X102850004Y-100594435D01*
X102849996Y-100594435D01*
X102670750Y-100614630D01*
X102670745Y-100614631D01*
X102500476Y-100674211D01*
X102347737Y-100770184D01*
X102220184Y-100897737D01*
X102124211Y-101050476D01*
X102064631Y-101220745D01*
X102064630Y-101220750D01*
X102044435Y-101399996D01*
X100361318Y-101399996D01*
X100405501Y-101281536D01*
X100412851Y-101265444D01*
X100437256Y-101220750D01*
X100523981Y-101061923D01*
X100533537Y-101047054D01*
X100672506Y-100861413D01*
X100684080Y-100848056D01*
X100848056Y-100684080D01*
X100861413Y-100672506D01*
X101047054Y-100533537D01*
X101061923Y-100523981D01*
X101265444Y-100412850D01*
X101281537Y-100405501D01*
X101498815Y-100324460D01*
X101515766Y-100319483D01*
X101742360Y-100270190D01*
X101759857Y-100267674D01*
X101995582Y-100250816D01*
X102004428Y-100250500D01*
X102044170Y-100250500D01*
X118755830Y-100250500D01*
X118795572Y-100250500D01*
X118804418Y-100250816D01*
G37*
%TD.AperFunction*%
%TD*%
M02*
